<?xml version="1.0" encoding="iso-8859-1"?>
<!-- Uploaded to: SVG Repo, www.svgrepo.com, Generator: SVG Repo Mixer Tools -->
<svg version="1.1" id="Layer_1" xmlns="http://www.w3.org/2000/svg" xmlns:xlink="http://www.w3.org/1999/xlink" 
	 viewBox="0 0 512 512" xml:space="preserve">
<g>
	<path style="fill:#77757E;" d="M163.111,512h-26.202c-7.304,0-13.225-5.921-13.225-13.225v-58.698h52.653v58.698
		C176.337,506.079,170.415,512,163.111,512z"/>
	<path style="fill:#77757E;" d="M370.094,512h-26.202c-7.304,0-13.225-5.921-13.225-13.225v-58.698h52.653v58.698
		C383.319,506.079,377.398,512,370.094,512z"/>
</g>
<path style="fill:#D84C4C;" d="M402.573,428.589H109.429c-8.765,0-16.259-6.305-17.759-14.94l-14.313-82.407
	c-2.165-12.464,7.431-23.87,20.081-23.87h317.123c12.652,0,22.246,11.405,20.081,23.87l-14.313,82.407
	C418.832,422.285,411.337,428.589,402.573,428.589z"/>
<g>
	<path style="fill:#B23F3F;" d="M83.799,367.982l7.932,45.668c1.5,8.636,8.994,14.94,17.759,14.94h293.144
		c8.764,0,16.259-6.305,17.759-14.94l7.932-45.668H83.799z"/>
	<path style="fill:#B23F3F;" d="M415.207,312.214H93.309l35.013-112.246c3.439-11.071,13.682-18.615,25.275-18.615h201.64
		c11.593,0,21.836,7.544,25.275,18.615L415.207,312.214z"/>
</g>
<g>
	<circle style="fill:#D3EFFD;" cx="148.76" cy="367.98" r="32.574"/>
	<circle style="fill:#D3EFFD;" cx="363.245" cy="367.98" r="32.574"/>
</g>
<g>
	<rect x="212.834" y="350.328" style="fill:#5D5D5D;" width="86.158" height="35.301"/>
	<rect x="103.338" y="428.591" style="fill:#5D5D5D;" width="302.159" height="22.014"/>
</g>
<path style="fill:#D84C4C;" d="M383.384,210.97l-3.418-11.002c-3.439-11.071-13.682-18.615-25.274-18.615h-201.64
	c-11.593,0-21.836,7.544-25.274,18.615l-3.367,10.839C201.811,210.785,317.409,210.897,383.384,210.97z"/>
<path style="fill:#77757E;" d="M349.436,0c-25.995,0-48.488,14.938-59.402,36.691c-1.039-0.111-2.094-0.169-3.161-0.169h-53.61
	l-14.892,10.526l-18.396-10.526l-19.272,10.526l-15.768-10.526l-13.432,10.526l-13.616-10.526
	c-16.454,0-29.916,13.462-29.916,29.916l0,0c0,16.454,13.462,29.916,29.916,29.916h148.984c1.067,0,2.122-0.059,3.161-0.169
	c10.915,21.753,33.408,36.691,59.402,36.691c36.693,0,66.437-29.745,66.437-66.437C415.873,29.744,386.128,0,349.436,0z
	 M366.367,82.04c-9.676,0-17.52-7.844-17.52-17.52S356.691,47,366.367,47s17.52,7.844,17.52,17.52S376.043,82.04,366.367,82.04z"/>
<polygon style="fill:#D3EFFD;" points="145.514,210.97 120.455,299.509 387.339,299.509 362.28,210.97 "/>
<g style="opacity:0.5;">
	<polygon style="fill:#FFFFFF;" points="227.369,210.97 202.31,299.509 279.72,299.509 307.293,210.97 	"/>
</g>
<g>
	<path style="fill:#FFFFFF;" d="M163.411,338.768l-43.895,43.896c3.097,5.974,7.986,10.863,13.961,13.961l43.895-43.895
		C174.274,346.755,169.385,341.865,163.411,338.768z"/>
	<path style="fill:#FFFFFF;" d="M378.207,339.053l-43.895,43.896c3.097,5.974,7.986,10.863,13.961,13.961l43.895-43.895
		C389.071,347.04,384.182,342.15,378.207,339.053z"/>
</g>
<path style="fill:#5D5D5D;" d="M366.367,82.039c-9.027,0-16.454-6.83-17.41-15.603H107.973c0,16.454,13.462,29.916,29.916,29.916
	h148.984c1.067,0,2.122-0.059,3.161-0.169c10.915,21.753,33.408,36.691,59.402,36.691c36.693,0,66.437-29.745,66.437-66.437h-32.096
	C382.822,75.21,375.394,82.039,366.367,82.039z"/>
</svg>