<svg xmlns="http://www.w3.org/2000/svg" xmlns:xlink="http://www.w3.org/1999/xlink" zoomAndPan="magnify" preserveAspectRatio="xMidYMid meet" version="1.0" viewBox="70.52 128 233.42 142.03"><defs><g/><clipPath id="e4cfdb8973"><path d="M 112.5 128 L 262.5 128 L 262.5 213 L 112.5 213 Z M 112.5 128 " clip-rule="nonzero"/></clipPath></defs><g fill="#f1c656" fill-opacity="1"><g transform="translate(111.011247, 250.288196)"><g><path d="M 26.96875 0.5 C 27.96875 0.546875 28.59375 0 28.59375 -0.953125 L 28.59375 -1.8125 C 28.59375 -2.5 28.234375 -3.09375 27.234375 -3.140625 C 23 -3.28125 21.875 -7.453125 19.640625 -13.546875 C 24.828125 -14.78125 27.234375 -17.6875 27.234375 -22.09375 C 27.234375 -28.515625 23.734375 -31.78125 16.09375 -31.828125 L 3.6875 -31.828125 C 2.8125 -31.828125 2.59375 -31.515625 2.59375 -30.6875 L 2.59375 -29.640625 C 2.59375 -28.78125 2.859375 -28.46875 3.6875 -28.46875 L 5.78125 -28.1875 L 5.78125 -3.640625 L 3.6875 -3.359375 C 2.859375 -3.3125 2.59375 -3 2.59375 -2.140625 L 2.59375 -1.1875 C 2.59375 -0.3125 2.8125 0 3.6875 0 L 13.09375 0 C 13.640625 0 13.90625 -0.3125 13.90625 -1.1875 L 13.90625 -2.140625 C 13.90625 -3 13.6875 -3.3125 13.140625 -3.359375 L 9.734375 -3.640625 L 9.734375 -12.90625 C 13.78125 -12.90625 14.90625 -12.953125 15.953125 -13.046875 C 18.1875 -6.6875 19.734375 0.3125 26.96875 0.5 Z M 9.734375 -16.1875 L 9.734375 -28.46875 L 14.328125 -28.46875 C 21.921875 -28.46875 23.421875 -25.96875 23.421875 -22 C 23.421875 -18.28125 20.28125 -16.1875 13.453125 -16.1875 Z M 9.734375 -16.1875 "/></g></g></g><g fill="#f1c656" fill-opacity="1"><g transform="translate(140.793315, 250.288196)"><g><path d="M 3.6875 0 L 24.328125 0 C 25.046875 0 25.375 -0.3125 25.375 -1.140625 L 25.375 -8.5 C 25.375 -9.28125 25.140625 -9.640625 24.375 -9.640625 L 23.421875 -9.640625 C 22.921875 -9.640625 22.421875 -9.5 22.328125 -8.546875 L 21.59375 -3.640625 L 9.734375 -3.640625 L 9.734375 -14.140625 L 17.453125 -14.140625 L 17.59375 -11.828125 C 17.59375 -11.375 17.828125 -10.953125 18.234375 -10.953125 L 19.140625 -10.953125 C 19.734375 -10.953125 19.953125 -11.375 19.953125 -11.90625 L 19.953125 -19.59375 C 19.953125 -20.28125 19.734375 -20.546875 19.140625 -20.546875 L 18.234375 -20.546875 C 17.875 -20.546875 17.640625 -20.28125 17.640625 -19.875 L 17.5 -17.6875 L 9.734375 -17.6875 L 9.734375 -28.1875 L 21.546875 -28.1875 L 22.328125 -23.234375 C 22.421875 -22.328125 22.875 -22.140625 23.421875 -22.140625 L 24.328125 -22.140625 C 25.046875 -22.140625 25.328125 -22.46875 25.328125 -23.328125 L 25.328125 -30.640625 C 25.328125 -31.5625 25.046875 -31.828125 24.234375 -31.828125 L 3.6875 -31.828125 C 2.8125 -31.828125 2.59375 -31.515625 2.59375 -30.640625 L 2.59375 -29.640625 C 2.59375 -28.78125 2.859375 -28.46875 3.6875 -28.46875 L 5.78125 -28.1875 L 5.78125 -3.640625 L 3.6875 -3.359375 C 2.859375 -3.3125 2.59375 -3 2.59375 -2.140625 L 2.59375 -1.1875 C 2.59375 -0.3125 2.8125 0 3.6875 0 Z M 3.6875 0 "/></g></g></g><g fill="#f1c656" fill-opacity="1"><g transform="translate(169.438665, 250.288196)"><g><path d="M 3.40625 0 L 13.046875 0 C 13.875 0 14.140625 -0.3125 14.140625 -1.1875 L 14.140625 -1.6875 C 14.140625 -2.546875 13.875 -2.859375 13.046875 -2.90625 L 9.78125 -3.140625 L 9.78125 -25.09375 L 24.046875 -0.6875 C 24.375 -0.234375 24.78125 0 25.28125 0 L 27.1875 0 C 27.921875 0 28.421875 -0.5 28.421875 -1.3125 L 28.421875 -28.640625 L 30.515625 -28.921875 C 31.328125 -28.96875 31.5625 -29.28125 31.5625 -30.140625 L 31.5625 -30.640625 C 31.5625 -31.515625 31.328125 -31.828125 30.515625 -31.828125 L 20.921875 -31.828125 C 20.328125 -31.828125 20.09375 -31.234375 20.09375 -30.640625 L 20.09375 -30.140625 C 20.09375 -29.28125 20.328125 -28.96875 21.140625 -28.921875 L 24.421875 -28.640625 L 24.421875 -7.734375 L 10.640625 -31.28125 C 10.453125 -31.640625 10.140625 -31.828125 9.734375 -31.828125 L 3.40625 -31.828125 C 2.59375 -31.828125 2.359375 -31.515625 2.359375 -30.640625 L 2.359375 -29.96875 C 2.359375 -29.09375 2.59375 -28.78125 3.40625 -28.734375 L 5.8125 -28.640625 L 5.8125 -3.140625 L 3.40625 -2.90625 C 2.59375 -2.859375 2.359375 -2.546875 2.359375 -1.6875 L 2.359375 -1.1875 C 2.359375 -0.3125 2.59375 0 3.40625 0 Z M 3.40625 0 "/></g></g></g><g fill="#f1c656" fill-opacity="1"><g transform="translate(203.085585, 250.288196)"><g><path d="M 7.953125 0 L 19.140625 0 C 20 0 20.234375 -0.3125 20.234375 -1.1875 L 20.234375 -2.140625 C 20.234375 -3 19.953125 -3.3125 19.140625 -3.359375 L 15.5 -3.640625 L 15.5 -28.1875 L 22.1875 -28.1875 L 22.921875 -23.234375 C 22.96875 -22.328125 23.46875 -22.140625 24.046875 -22.140625 L 25.015625 -22.1875 C 25.6875 -22.28125 25.921875 -22.59375 25.921875 -23.328125 L 25.921875 -30.640625 C 25.921875 -31.5625 25.6875 -31.828125 24.828125 -31.828125 L 2.28125 -31.828125 C 1.40625 -31.828125 1.1875 -31.5625 1.1875 -30.640625 L 1.1875 -23.328125 C 1.1875 -22.46875 1.453125 -22.140625 2.1875 -22.140625 L 3.09375 -22.140625 C 3.59375 -22.140625 4.09375 -22.328125 4.1875 -23.234375 L 4.90625 -28.1875 L 11.546875 -28.1875 L 11.546875 -3.640625 L 7.90625 -3.359375 C 7.140625 -3.3125 6.859375 -3 6.859375 -2.140625 L 6.859375 -1.1875 C 6.859375 -0.3125 7.140625 0 7.953125 0 Z M 7.953125 0 "/></g></g></g><g fill="#f1c656" fill-opacity="1"><g transform="translate(230.184998, 250.288196)"><g><path d="M 16.953125 -32.421875 C 7.1875 -32.421875 3.1875 -26.875 3.1875 -15.640625 C 3.1875 -4.640625 7.1875 0.8125 16.953125 0.8125 C 26.640625 0.8125 30.59375 -4.640625 30.59375 -15.640625 C 30.59375 -26.875 26.640625 -32.421875 16.953125 -32.421875 Z M 7.140625 -15.546875 C 7.140625 -24.375 10.546875 -28.78125 16.953125 -28.78125 C 23.328125 -28.78125 26.640625 -24.375 26.640625 -15.546875 C 26.640625 -6.953125 23.328125 -2.734375 16.953125 -2.734375 C 10.546875 -2.734375 7.140625 -6.953125 7.140625 -15.546875 Z M 7.140625 -15.546875 "/></g></g></g><g fill="#f1c656" fill-opacity="1"><g transform="translate(132.486338, 269.793937)"><g><path d="M 4.40625 0.234375 C 6.15625 0.234375 7.578125 -0.484375 7.6875 -2.375 C 7.734375 -2.75 7.515625 -3.03125 7.140625 -3.03125 L 6.421875 -3.03125 C 6.1875 -3.03125 5.96875 -2.921875 5.921875 -2.65625 C 5.84375 -1.84375 5.25 -1.5 4.390625 -1.5 C 3.28125 -1.5 2.671875 -2.359375 2.65625 -4.125 C 2.671875 -5.9375 3.28125 -6.828125 4.390625 -6.828125 C 5.28125 -6.828125 5.75 -6.453125 5.953125 -5.359375 C 5.96875 -4.84375 6.296875 -4.828125 6.546875 -4.828125 L 7.28125 -4.828125 C 7.734375 -4.828125 7.84375 -4.9375 7.84375 -5.375 L 7.84375 -7.84375 C 7.84375 -8.28125 7.734375 -8.375 7.296875 -8.375 L 7.03125 -8.375 C 6.71875 -8.375 6.640625 -8.3125 6.59375 -8.140625 L 6.484375 -7.65625 C 6.078125 -8.359375 5.40625 -8.5625 4.40625 -8.5625 C 1.90625 -8.5625 0.859375 -7.109375 0.84375 -4.140625 C 0.859375 -1.21875 1.90625 0.234375 4.40625 0.234375 Z M 4.40625 0.234375 "/></g></g></g><g fill="#f1c656" fill-opacity="1"><g transform="translate(144.31005, 269.793937)"><g><path d="M 0.75 0.015625 L 3.234375 0.015625 C 3.640625 0.015625 3.75 -0.078125 3.75 -0.53125 L 3.75 -0.796875 C 3.75 -1.25 3.6875 -1.375 3.25 -1.375 L 2.875 -1.390625 L 3.15625 -2.34375 L 5.9375 -2.34375 L 6.21875 -1.390625 L 5.859375 -1.375 C 5.421875 -1.375 5.359375 -1.25 5.359375 -0.796875 L 5.359375 -0.53125 C 5.359375 -0.078125 5.453125 0.015625 5.875 0.015625 L 8.359375 0.015625 C 8.765625 0.015625 8.859375 -0.078125 8.859375 -0.53125 L 8.859375 -0.796875 C 8.859375 -1.25 8.796875 -1.34375 8.359375 -1.359375 L 8.046875 -1.375 L 6.109375 -7.40625 C 5.84375 -8.21875 5.703125 -8.4375 5.140625 -8.4375 L 3.921875 -8.4375 C 3.34375 -8.4375 3.21875 -8.25 2.921875 -7.375 L 1 -1.375 L 0.75 -1.359375 C 0.3125 -1.328125 0.25 -1.25 0.25 -0.796875 L 0.25 -0.53125 C 0.25 -0.078125 0.34375 0.015625 0.75 0.015625 Z M 3.5625 -3.765625 L 4.53125 -7.0625 L 5.515625 -3.765625 Z M 3.5625 -3.765625 "/></g></g></g><g fill="#f1c656" fill-opacity="1"><g transform="translate(156.493404, 269.793937)"><g><path d="M 7.359375 0.140625 C 7.734375 0.1875 8.015625 -0.046875 8.015625 -0.40625 L 8.015625 -0.984375 C 8.015625 -1.21875 7.875 -1.421875 7.46875 -1.46875 C 6.640625 -1.546875 6.34375 -2.3125 5.96875 -3.28125 C 7.171875 -3.6875 7.796875 -4.53125 7.796875 -5.671875 C 7.796875 -7.34375 6.640625 -8.375 4.421875 -8.390625 L 1.1875 -8.40625 C 0.75 -8.40625 0.6875 -8.296875 0.6875 -7.890625 L 0.6875 -7.25 C 0.6875 -6.796875 0.78125 -6.703125 1.1875 -6.703125 L 1.578125 -6.6875 L 1.578125 -1.703125 L 1.1875 -1.6875 C 0.78125 -1.6875 0.6875 -1.578125 0.6875 -1.140625 L 0.6875 -0.546875 C 0.6875 -0.09375 0.75 0.015625 1.1875 0.015625 L 3.796875 0.015625 C 4.03125 0.015625 4.109375 -0.09375 4.109375 -0.546875 L 4.109375 -1.140625 C 4.109375 -1.578125 4.015625 -1.6875 3.796875 -1.6875 L 3.390625 -1.703125 L 3.375 -3.015625 C 3.828125 -3.015625 4.0625 -3.015625 4.265625 -3.03125 C 4.734375 -1.3125 5.671875 0.03125 7.359375 0.140625 Z M 3.390625 -4.578125 L 3.390625 -6.828125 L 3.96875 -6.828125 C 5.921875 -6.828125 6 -6.1875 6 -5.65625 C 6 -5.046875 5.453125 -4.578125 3.90625 -4.578125 Z M 3.390625 -4.578125 "/></g></g></g><g fill="#f1c656" fill-opacity="1"><g transform="translate(168.017406, 269.793937)"><g/></g></g><g fill="#f1c656" fill-opacity="1"><g transform="translate(176.448448, 269.793937)"><g><path d="M 7.359375 0.140625 C 7.734375 0.1875 8.015625 -0.046875 8.015625 -0.40625 L 8.015625 -0.984375 C 8.015625 -1.21875 7.875 -1.421875 7.46875 -1.46875 C 6.640625 -1.546875 6.34375 -2.3125 5.96875 -3.28125 C 7.171875 -3.6875 7.796875 -4.53125 7.796875 -5.671875 C 7.796875 -7.34375 6.640625 -8.375 4.421875 -8.390625 L 1.1875 -8.40625 C 0.75 -8.40625 0.6875 -8.296875 0.6875 -7.890625 L 0.6875 -7.25 C 0.6875 -6.796875 0.78125 -6.703125 1.1875 -6.703125 L 1.578125 -6.6875 L 1.578125 -1.703125 L 1.1875 -1.6875 C 0.78125 -1.6875 0.6875 -1.578125 0.6875 -1.140625 L 0.6875 -0.546875 C 0.6875 -0.09375 0.75 0.015625 1.1875 0.015625 L 3.796875 0.015625 C 4.03125 0.015625 4.109375 -0.09375 4.109375 -0.546875 L 4.109375 -1.140625 C 4.109375 -1.578125 4.015625 -1.6875 3.796875 -1.6875 L 3.390625 -1.703125 L 3.375 -3.015625 C 3.828125 -3.015625 4.0625 -3.015625 4.265625 -3.03125 C 4.734375 -1.3125 5.671875 0.03125 7.359375 0.140625 Z M 3.390625 -4.578125 L 3.390625 -6.828125 L 3.96875 -6.828125 C 5.921875 -6.828125 6 -6.1875 6 -5.65625 C 6 -5.046875 5.453125 -4.578125 3.90625 -4.578125 Z M 3.390625 -4.578125 "/></g></g></g><g fill="#f1c656" fill-opacity="1"><g transform="translate(187.972453, 269.793937)"><g><path d="M 1.1875 0.015625 L 7.03125 0 C 7.421875 0 7.5 -0.09375 7.5 -0.515625 L 7.5 -2.53125 C 7.5 -2.9375 7.421875 -3.0625 7.046875 -3.0625 L 6.390625 -3.0625 C 6.1875 -3.0625 5.921875 -3.046875 5.90625 -2.5625 L 5.828125 -1.71875 L 3.390625 -1.71875 L 3.390625 -3.34375 L 4.46875 -3.34375 L 4.484375 -3.0625 C 4.5 -2.921875 4.53125 -2.734375 4.671875 -2.734375 L 5.203125 -2.734375 C 5.484375 -2.734375 5.546875 -2.921875 5.546875 -3.109375 L 5.546875 -5.203125 C 5.546875 -5.515625 5.484375 -5.578125 5.203125 -5.578125 L 4.671875 -5.578125 C 4.5625 -5.578125 4.53125 -5.484375 4.515625 -5.375 L 4.46875 -5.0625 L 3.390625 -5.046875 L 3.390625 -6.6875 L 5.8125 -6.6875 L 5.875 -5.828125 C 5.90625 -5.34375 6.171875 -5.328125 6.390625 -5.328125 L 7.015625 -5.328125 C 7.390625 -5.328125 7.484375 -5.4375 7.484375 -5.859375 L 7.484375 -7.875 C 7.484375 -8.328125 7.421875 -8.40625 6.96875 -8.40625 L 1.1875 -8.40625 C 0.75 -8.40625 0.6875 -8.296875 0.6875 -7.84375 L 0.6875 -7.25 C 0.6875 -6.796875 0.78125 -6.703125 1.1875 -6.703125 L 1.578125 -6.6875 L 1.578125 -1.703125 L 1.1875 -1.6875 C 0.78125 -1.6875 0.6875 -1.578125 0.6875 -1.140625 L 0.6875 -0.546875 C 0.6875 -0.09375 0.75 0.015625 1.1875 0.015625 Z M 1.1875 0.015625 "/></g></g></g><g fill="#f1c656" fill-opacity="1"><g transform="translate(199.388563, 269.793937)"><g><path d="M 1.109375 0.015625 L 3.828125 0.015625 C 4.265625 0.015625 4.328125 -0.09375 4.328125 -0.546875 L 4.328125 -0.796875 C 4.328125 -1.25 4.234375 -1.34375 3.828125 -1.34375 L 3.359375 -1.375 L 3.359375 -4.953125 L 6.171875 -0.234375 C 6.25 -0.078125 6.421875 0 6.578125 0 L 7.46875 0 C 7.78125 0 8 -0.234375 8 -0.53125 L 8 -7.015625 L 8.375 -7.046875 C 8.796875 -7.046875 8.875 -7.15625 8.875 -7.578125 L 8.875 -7.84375 C 8.875 -8.296875 8.8125 -8.40625 8.390625 -8.40625 L 5.515625 -8.40625 C 5.25 -8.40625 5.203125 -8.109375 5.203125 -7.84375 L 5.203125 -7.578125 C 5.203125 -7.15625 5.296875 -7.046875 5.71875 -7.046875 L 6.1875 -7.015625 L 6.1875 -3.765625 L 3.53125 -8.1875 C 3.453125 -8.328125 3.296875 -8.40625 3.140625 -8.40625 L 1.109375 -8.40625 C 0.703125 -8.40625 0.625 -8.296875 0.625 -7.84375 L 0.625 -7.578125 C 0.625 -7.140625 0.703125 -7.03125 1.125 -7.03125 L 1.53125 -7.015625 L 1.53125 -1.375 L 1.125 -1.34375 C 0.703125 -1.34375 0.625 -1.25 0.625 -0.796875 L 0.625 -0.546875 C 0.625 -0.09375 0.703125 0.015625 1.109375 0.015625 Z M 1.109375 0.015625 "/></g></g></g><g fill="#f1c656" fill-opacity="1"><g transform="translate(211.979524, 269.793937)"><g><path d="M 2.296875 0.015625 L 5.3125 0.015625 C 5.734375 0.015625 5.8125 -0.09375 5.8125 -0.546875 L 5.8125 -1.140625 C 5.8125 -1.578125 5.71875 -1.6875 5.296875 -1.6875 L 4.71875 -1.703125 L 4.71875 -6.6875 L 5.640625 -6.6875 L 5.71875 -5.828125 C 5.71875 -5.34375 6 -5.328125 6.21875 -5.328125 L 6.859375 -5.328125 C 7.21875 -5.34375 7.3125 -5.453125 7.3125 -5.859375 L 7.3125 -7.875 C 7.3125 -8.328125 7.25 -8.40625 6.796875 -8.40625 L 0.828125 -8.40625 C 0.375 -8.40625 0.3125 -8.328125 0.3125 -7.875 L 0.3125 -5.859375 C 0.3125 -5.4375 0.390625 -5.328125 0.78125 -5.328125 L 1.40625 -5.328125 C 1.625 -5.328125 1.890625 -5.34375 1.90625 -5.828125 L 1.984375 -6.6875 L 2.890625 -6.6875 L 2.890625 -1.703125 L 2.3125 -1.6875 C 1.890625 -1.6875 1.8125 -1.578125 1.8125 -1.140625 L 1.8125 -0.546875 C 1.8125 -0.09375 1.890625 0.015625 2.296875 0.015625 Z M 2.296875 0.015625 "/></g></g></g><g fill="#f1c656" fill-opacity="1"><g transform="translate(222.796227, 269.793937)"><g><path d="M 0.75 0.015625 L 3.234375 0.015625 C 3.640625 0.015625 3.75 -0.078125 3.75 -0.53125 L 3.75 -0.796875 C 3.75 -1.25 3.6875 -1.375 3.25 -1.375 L 2.875 -1.390625 L 3.15625 -2.34375 L 5.9375 -2.34375 L 6.21875 -1.390625 L 5.859375 -1.375 C 5.421875 -1.375 5.359375 -1.25 5.359375 -0.796875 L 5.359375 -0.53125 C 5.359375 -0.078125 5.453125 0.015625 5.875 0.015625 L 8.359375 0.015625 C 8.765625 0.015625 8.859375 -0.078125 8.859375 -0.53125 L 8.859375 -0.796875 C 8.859375 -1.25 8.796875 -1.34375 8.359375 -1.359375 L 8.046875 -1.375 L 6.109375 -7.40625 C 5.84375 -8.21875 5.703125 -8.4375 5.140625 -8.4375 L 3.921875 -8.4375 C 3.34375 -8.4375 3.21875 -8.25 2.921875 -7.375 L 1 -1.375 L 0.75 -1.359375 C 0.3125 -1.328125 0.25 -1.25 0.25 -0.796875 L 0.25 -0.53125 C 0.25 -0.078125 0.34375 0.015625 0.75 0.015625 Z M 3.5625 -3.765625 L 4.53125 -7.0625 L 5.515625 -3.765625 Z M 3.5625 -3.765625 "/></g></g></g><g fill="#f1c656" fill-opacity="1"><g transform="translate(234.979584, 269.793937)"><g><path d="M 1.203125 0.015625 L 6.671875 0.015625 C 7.125 0.015625 7.1875 -0.0625 7.1875 -0.515625 L 7.1875 -2.71875 C 7.1875 -3.125 7.109375 -3.25 6.71875 -3.25 L 6.09375 -3.25 C 5.875 -3.25 5.59375 -3.234375 5.578125 -2.734375 L 5.515625 -1.703125 L 3.5 -1.703125 L 3.5 -6.671875 L 4.140625 -6.6875 C 4.546875 -6.6875 4.65625 -6.78125 4.65625 -7.234375 L 4.65625 -7.84375 C 4.65625 -8.28125 4.578125 -8.390625 4.15625 -8.390625 L 1.1875 -8.390625 C 0.75 -8.390625 0.6875 -8.28125 0.6875 -7.84375 L 0.6875 -7.234375 C 0.6875 -6.78125 0.796875 -6.6875 1.21875 -6.6875 L 1.6875 -6.671875 L 1.6875 -1.703125 L 1.21875 -1.6875 C 0.796875 -1.6875 0.703125 -1.59375 0.703125 -1.15625 L 0.703125 -0.546875 C 0.703125 -0.09375 0.78125 0.015625 1.203125 0.015625 Z M 1.203125 0.015625 "/></g></g></g><path stroke-linecap="butt" transform="matrix(0.75, 0, 0, 0.75, 71.515634, 265.668938)" fill="none" stroke-linejoin="miter" d="M -0.0000122717 0.998708 L 69.609367 0.998708 " stroke="#f1c656" stroke-width="2" stroke-opacity="1" stroke-miterlimit="4"/><path stroke-linecap="butt" transform="matrix(0.75, 0, 0, 0.75, 250.733249, 265.668938)" fill="none" stroke-linejoin="miter" d="M 0.00150155 0.998708 L 69.605673 0.998708 " stroke="#f1c656" stroke-width="2" stroke-opacity="1" stroke-miterlimit="4"/><g clip-path="url(#e4cfdb8973)"><path fill="#f1c656" d="M 256.503906 196.671875 C 256.9375 198.117188 255.78125 197.828125 255.78125 198.554688 C 258.238281 198.554688 258.09375 197.683594 259.25 197.539062 C 259.539062 197.539062 259.539062 199.710938 261.421875 198.988281 C 261.710938 198.84375 262.433594 199.566406 261.710938 199.855469 C 261.710938 199.855469 259.105469 201.589844 259.539062 201.589844 C 259.828125 201.589844 261.421875 201.589844 261.566406 201.878906 L 261.566406 201.734375 C 243.628906 215.621094 131.371094 215.621094 113.433594 201.734375 L 113.433594 201.878906 C 113.578125 201.589844 115.023438 201.589844 115.316406 201.589844 C 115.75 201.589844 113.289062 200 113.289062 199.855469 C 112.566406 199.566406 113.289062 198.84375 113.433594 198.988281 C 115.316406 199.710938 115.316406 197.539062 115.75 197.539062 C 116.90625 197.683594 116.761719 198.554688 119.21875 198.554688 C 119.21875 197.828125 118.207031 198.117188 118.640625 196.671875 C 144.101562 209.546875 231.1875 209.546875 256.503906 196.671875 Z M 226.125 149.65625 C 227.714844 149.222656 228.871094 148.210938 229.597656 146.910156 C 229.453125 146.476562 228.726562 145.898438 227.425781 145.460938 C 222.21875 136.492188 219.613281 131.863281 219.613281 131.863281 C 219.757812 131.285156 220.484375 130.707031 221.929688 130.128906 C 197.191406 127.8125 180.121094 127.8125 155.53125 130.128906 C 156.976562 130.707031 157.84375 131.285156 157.84375 131.863281 C 157.84375 131.863281 155.242188 136.347656 150.03125 145.460938 C 148.730469 145.898438 148.007812 146.476562 147.863281 146.910156 C 148.585938 148.210938 149.597656 149.222656 151.335938 149.65625 C 176.941406 149.945312 200.375 149.945312 226.125 149.65625 Z M 192.851562 130.5625 C 193.285156 130.417969 193.574219 130.273438 193.574219 129.839844 C 202.6875 130.128906 207.898438 130.5625 209.34375 130.851562 C 208.910156 131.429688 208.765625 131.863281 208.765625 131.863281 C 204.570312 130.851562 201.53125 133.746094 199.796875 140.832031 L 188.65625 140.976562 L 177.519531 140.832031 C 175.78125 133.890625 172.746094 130.851562 168.550781 131.863281 C 168.550781 131.863281 168.40625 131.574219 167.972656 130.851562 C 169.417969 130.5625 174.625 130.128906 183.738281 129.839844 C 183.882812 130.273438 184.171875 130.5625 184.460938 130.5625 C 187.210938 130.5625 190.105469 130.5625 192.851562 130.5625 Z M 195.023438 147.054688 C 194.734375 144.738281 196.613281 143.148438 200.375 142.136719 C 200.808594 139.964844 201.242188 138.519531 202.109375 137.941406 C 210.789062 138.519531 215.128906 138.808594 215.128906 138.808594 C 215.851562 136.78125 216.722656 134.902344 217.878906 133.457031 C 220.917969 138.230469 222.652344 141.265625 222.941406 142.425781 C 219.179688 141.121094 217.15625 139.964844 216.867188 138.953125 C 217.589844 141.265625 218.890625 142.859375 221.207031 143.871094 C 222.652344 144.738281 223.230469 146.042969 222.941406 147.921875 C 200.230469 147.921875 177.519531 147.921875 154.664062 147.921875 C 154.371094 146.042969 154.953125 144.738281 156.398438 143.871094 C 158.710938 142.859375 160.160156 141.265625 160.738281 138.953125 C 160.449219 139.964844 158.421875 141.121094 154.515625 142.425781 C 154.953125 141.265625 156.542969 138.230469 159.726562 133.457031 C 160.882812 134.902344 161.75 136.78125 162.472656 138.808594 C 162.472656 138.808594 166.8125 138.519531 175.347656 137.941406 C 175.925781 138.519531 176.503906 139.964844 176.796875 142.136719 C 180.699219 143.148438 182.4375 144.738281 182.148438 147.054688 C 186.632812 147.054688 190.683594 147.054688 195.023438 147.054688 Z M 163.050781 142.136719 L 174.335938 142.136719 C 175.058594 142.136719 175.636719 142.714844 175.636719 143.4375 C 175.636719 144.160156 175.058594 144.738281 174.335938 144.738281 L 163.050781 144.738281 C 162.328125 144.738281 161.75 144.160156 161.75 143.4375 C 161.894531 142.714844 162.472656 142.136719 163.050781 142.136719 Z M 214.117188 142.136719 L 202.832031 142.136719 C 202.109375 142.136719 201.53125 142.714844 201.53125 143.4375 C 201.53125 144.160156 202.109375 144.738281 202.832031 144.738281 L 214.117188 144.738281 C 214.839844 144.738281 215.417969 144.160156 215.417969 143.4375 C 215.417969 142.714844 214.839844 142.136719 214.117188 142.136719 Z M 217.300781 190.742188 C 218.167969 191.03125 218.601562 191.175781 218.601562 191.175781 C 214.695312 193.777344 198.203125 193.488281 192.5625 193.777344 C 188.367188 193.921875 184.75 193.921875 182.003906 193.632812 C 176.796875 193.199219 159.003906 193.488281 156.542969 191.320312 C 157.410156 190.742188 157.84375 190.453125 157.84375 190.453125 C 161.027344 193.488281 213.105469 193.488281 217.300781 190.742188 Z M 198.785156 185.96875 C 208.476562 185.242188 214.40625 184.953125 216.289062 184.664062 C 215.851562 183.507812 214.550781 182.929688 212.238281 182.640625 C 195.023438 183.652344 178.097656 183.652344 161.460938 182.496094 C 159.871094 182.929688 159.003906 183.652344 158.855469 184.375 C 161.894531 184.953125 167.679688 185.390625 175.925781 185.96875 C 177.953125 186.113281 181.425781 187.992188 186.488281 190.742188 C 187.210938 191.175781 187.933594 191.175781 188.511719 190.742188 C 193.574219 187.847656 196.902344 186.113281 198.785156 185.96875 Z M 254.042969 155.445312 C 254.476562 154.722656 254.765625 154.429688 254.765625 154.429688 C 257.226562 159.785156 258.238281 169.332031 258.09375 183.074219 C 258.09375 191.898438 256.648438 196.382812 253.898438 196.382812 C 250.425781 195.660156 248.691406 192.621094 248.980469 187.414062 C 249.269531 184.375 251.148438 180.46875 254.476562 175.695312 C 257.515625 168.464844 257.371094 161.808594 254.042969 155.445312 Z M 244.640625 189.292969 C 243.917969 187.269531 244.351562 185.242188 245.363281 183.507812 C 249.703125 175.695312 251.003906 168.898438 249.269531 162.820312 C 234.515625 167.738281 225.257812 172.078125 221.496094 175.695312 C 222.074219 176.273438 223.230469 176.566406 224.96875 176.273438 C 237.550781 174.972656 244.785156 173.238281 246.957031 171.355469 C 247.390625 173.238281 245.796875 176.417969 242.035156 180.46875 C 240.300781 182.351562 237.40625 183.21875 233.9375 184.230469 C 227.425781 185.96875 208.621094 198.40625 221.785156 198.699219 C 235.671875 198.554688 243.773438 197.25 246.085938 194.503906 C 246.230469 193.34375 245.507812 191.753906 244.640625 189.292969 Z M 222.941406 174.972656 C 222.941406 175.261719 222.796875 175.550781 222.796875 175.550781 C 230.320312 174.394531 245.074219 174.972656 244.0625 165.570312 C 243.628906 165.570312 243.484375 165.570312 243.484375 165.570312 C 243.773438 174.25 229.308594 173.960938 222.941406 174.972656 Z M 210.210938 169.621094 C 210.933594 166.726562 211.949219 164.558594 213.394531 163.402344 C 216.144531 160.941406 220.628906 158.625 226.992188 156.457031 C 228.292969 156.023438 230.03125 153.851562 232.34375 149.945312 C 231.476562 150.816406 230.753906 151.828125 229.886719 152.839844 C 228.871094 153.996094 226.992188 154.722656 224.53125 155.445312 C 217.15625 158.046875 211.222656 161.519531 210.210938 169.621094 Z M 122.546875 155.445312 C 122.113281 154.867188 121.824219 154.429688 121.824219 154.429688 C 119.363281 159.785156 118.351562 169.332031 118.496094 183.074219 C 118.496094 191.898438 119.945312 196.382812 122.691406 196.382812 C 126.164062 195.660156 127.898438 192.621094 127.609375 187.414062 C 127.320312 184.375 125.441406 180.46875 122.113281 175.695312 C 119.074219 168.464844 119.21875 161.808594 122.546875 155.445312 Z M 131.949219 189.292969 C 132.675781 187.269531 132.238281 185.242188 131.226562 183.507812 C 126.886719 175.695312 125.585938 168.898438 127.320312 162.820312 C 142.078125 167.738281 151.335938 172.078125 155.097656 175.695312 C 154.371094 176.273438 153.359375 176.566406 151.625 176.273438 C 139.039062 174.972656 131.804688 173.238281 129.636719 171.355469 C 129.203125 173.238281 130.792969 176.417969 134.554688 180.46875 C 136.289062 182.351562 139.183594 183.21875 142.65625 184.230469 C 150.175781 186.402344 167.390625 198.40625 154.808594 198.699219 C 140.917969 198.554688 132.820312 197.25 130.648438 194.503906 C 130.359375 193.34375 131.082031 191.753906 131.949219 189.292969 Z M 153.648438 174.972656 C 153.648438 175.261719 153.648438 175.550781 153.648438 175.550781 C 146.128906 174.394531 131.515625 174.972656 132.382812 165.570312 C 132.820312 165.570312 132.964844 165.570312 132.964844 165.570312 C 132.964844 174.25 147.285156 173.960938 153.648438 174.972656 Z M 166.378906 169.621094 C 165.65625 166.726562 164.644531 164.558594 163.195312 163.402344 C 160.449219 160.941406 155.964844 158.625 149.597656 156.457031 C 148.296875 156.023438 146.5625 153.851562 144.246094 149.945312 C 145.113281 150.816406 145.839844 151.828125 146.707031 152.839844 C 147.71875 153.996094 149.597656 154.722656 152.058594 155.445312 C 159.4375 158.046875 165.367188 161.519531 166.378906 169.621094 Z M 166.378906 169.621094 " fill-opacity="1" fill-rule="evenodd"/></g></svg>