<svg xmlns="http://www.w3.org/2000/svg" xmlns:xlink="http://www.w3.org/1999/xlink" version="1.1" width="256" height="256" viewBox="0 0 256 256" xml:space="preserve">

<defs>
</defs>
<g style="stroke: none; stroke-width: 0; stroke-dasharray: none; stroke-linecap: butt; stroke-linejoin: miter; stroke-miterlimit: 10; fill: none; fill-rule: nonzero; opacity: 1;" transform="translate(1.4065934065934016 1.4065934065934016) scale(2.81 2.81)" >
	<path d="M 73.346 61.306 c -4.393 0 -7.967 -3.574 -7.967 -7.968 c 0 -4.393 3.574 -7.967 7.967 -7.967 c 4.394 0 7.968 3.574 7.968 7.967 C 81.313 57.732 77.739 61.306 73.346 61.306 z M 73.346 47.372 c -3.29 0 -5.967 2.677 -5.967 5.967 c 0 3.291 2.677 5.968 5.967 5.968 c 3.291 0 5.968 -2.677 5.968 -5.968 C 79.314 50.049 76.637 47.372 73.346 47.372 z" style="stroke: none; stroke-width: 1; stroke-dasharray: none; stroke-linecap: butt; stroke-linejoin: miter; stroke-miterlimit: 10; fill: rgb(0,0,0); fill-rule: nonzero; opacity: 1;" transform=" matrix(1 0 0 1 0 0) " stroke-linecap="round" />
	<path d="M 17.244 61.306 c -4.393 0 -7.967 -3.574 -7.967 -7.968 c 0 -4.393 3.574 -7.967 7.967 -7.967 s 7.967 3.574 7.967 7.967 C 25.211 57.732 21.637 61.306 17.244 61.306 z M 17.244 47.372 c -3.29 0 -5.967 2.677 -5.967 5.967 c 0 3.291 2.677 5.968 5.967 5.968 s 5.967 -2.677 5.967 -5.968 C 23.211 50.049 20.534 47.372 17.244 47.372 z" style="stroke: none; stroke-width: 1; stroke-dasharray: none; stroke-linecap: butt; stroke-linejoin: miter; stroke-miterlimit: 10; fill: rgb(0,0,0); fill-rule: nonzero; opacity: 1;" transform=" matrix(1 0 0 1 0 0) " stroke-linecap="round" />
	<path d="M 10.92 57.264 c -0.113 0 -0.229 -0.02 -0.341 -0.061 l -8.218 -2.984 c -1.673 -0.606 -2.654 -2.377 -2.283 -4.118 l 1.91 -8.965 c 0.379 -1.782 1.843 -3.171 3.643 -3.457 l 8.212 -1.305 c 0.543 -0.085 1.058 0.286 1.145 0.831 c 0.086 0.545 -0.286 1.058 -0.831 1.145 l -8.212 1.305 c -0.988 0.157 -1.792 0.919 -2 1.898 l -1.91 8.966 c -0.164 0.771 0.27 1.553 1.01 1.821 l 8.218 2.985 c 0.519 0.188 0.787 0.762 0.599 1.281 C 11.713 57.012 11.329 57.264 10.92 57.264 z" style="stroke: none; stroke-width: 1; stroke-dasharray: none; stroke-linecap: butt; stroke-linejoin: miter; stroke-miterlimit: 10; fill: rgb(0,0,0); fill-rule: nonzero; opacity: 1;" transform=" matrix(1 0 0 1 0 0) " stroke-linecap="round" />
	<path d="M 53.723 39.484 c -0.236 0 -0.474 -0.083 -0.664 -0.252 c -3.739 -3.322 -8.735 -6.218 -14.849 -8.606 c -0.515 -0.201 -0.769 -0.781 -0.568 -1.295 c 0.201 -0.514 0.778 -0.768 1.295 -0.568 c 6.335 2.476 11.534 5.495 15.45 8.975 c 0.413 0.367 0.45 0.999 0.083 1.412 C 54.273 39.371 53.998 39.484 53.723 39.484 z" style="stroke: none; stroke-width: 1; stroke-dasharray: none; stroke-linecap: butt; stroke-linejoin: miter; stroke-miterlimit: 10; fill: rgb(0,0,0); fill-rule: nonzero; opacity: 1;" transform=" matrix(1 0 0 1 0 0) " stroke-linecap="round" />
	<path d="M 79.668 57.264 c -0.504 0 -0.937 -0.38 -0.993 -0.893 c -0.06 -0.549 0.337 -1.042 0.887 -1.102 l 7 -0.76 c 0.507 -0.055 0.947 -0.338 1.209 -0.777 c 0.261 -0.438 0.3 -0.96 0.105 -1.433 c -2.274 -5.55 -7.385 -9.46 -13.337 -10.205 l -20.94 -2.619 c -0.548 -0.068 -0.937 -0.568 -0.868 -1.116 c 0.068 -0.547 0.563 -0.937 1.116 -0.868 l 20.94 2.619 c 6.668 0.834 12.392 5.214 14.94 11.432 c 0.434 1.059 0.347 2.23 -0.238 3.214 c -0.586 0.983 -1.574 1.618 -2.712 1.742 l -7.001 0.76 C 79.74 57.262 79.704 57.264 79.668 57.264 z" style="stroke: none; stroke-width: 1; stroke-dasharray: none; stroke-linecap: butt; stroke-linejoin: miter; stroke-miterlimit: 10; fill: rgb(0,0,0); fill-rule: nonzero; opacity: 1;" transform=" matrix(1 0 0 1 0 0) " stroke-linecap="round" />
	<path d="M 67.024 57.264 H 23.569 c -0.552 0 -1 -0.447 -1 -1 s 0.448 -1 1 -1 h 43.455 c 0.553 0 1 0.447 1 1 S 67.576 57.264 67.024 57.264 z" style="stroke: none; stroke-width: 1; stroke-dasharray: none; stroke-linecap: butt; stroke-linejoin: miter; stroke-miterlimit: 10; fill: rgb(0,0,0); fill-rule: nonzero; opacity: 1;" transform=" matrix(1 0 0 1 0 0) " stroke-linecap="round" />
	<path d="M 44.623 41.526 c -0.21 0 -0.421 -0.003 -0.631 -0.009 l -12.746 -0.621 c -1.989 -0.097 -3.804 -1.165 -4.855 -2.856 l -3.23 -5.196 c -3.256 1.332 -6.108 3.098 -8.488 5.259 c -0.409 0.373 -1.041 0.341 -1.413 -0.068 c -0.372 -0.409 -0.341 -1.041 0.068 -1.413 c 2.749 -2.497 6.075 -4.498 9.885 -5.949 c 0.45 -0.17 0.953 0 1.205 0.407 l 3.671 5.904 c 0.705 1.134 1.921 1.849 3.254 1.914 l 12.727 0.621 c 2.908 0.092 5.878 -0.486 8.565 -1.652 l 0.689 -0.299 c 0.509 -0.219 1.097 0.013 1.315 0.519 c 0.221 0.507 -0.012 1.096 -0.519 1.316 l -0.689 0.299 C 50.669 40.899 47.637 41.526 44.623 41.526 z" style="stroke: none; stroke-width: 1; stroke-dasharray: none; stroke-linecap: butt; stroke-linejoin: miter; stroke-miterlimit: 10; fill: rgb(0,0,0); fill-rule: nonzero; opacity: 1;" transform=" matrix(1 0 0 1 0 0) " stroke-linecap="round" />
	<path d="M 73.348 54.339 c -0.27 0 -0.52 -0.11 -0.71 -0.3 c -0.09 -0.09 -0.17 -0.2 -0.22 -0.32 c -0.05 -0.12 -0.07 -0.25 -0.07 -0.38 s 0.021 -0.26 0.07 -0.38 c 0.05 -0.13 0.13 -0.23 0.22 -0.33 c 0.37 -0.37 1.04 -0.37 1.41 0 c 0.1 0.1 0.17 0.2 0.22 0.33 c 0.05 0.12 0.08 0.25 0.08 0.38 s -0.03 0.26 -0.08 0.38 c -0.05 0.12 -0.12 0.23 -0.22 0.32 c -0.09 0.1 -0.2 0.17 -0.32 0.22 C 73.608 54.309 73.478 54.339 73.348 54.339 z" style="stroke: none; stroke-width: 1; stroke-dasharray: none; stroke-linecap: butt; stroke-linejoin: miter; stroke-miterlimit: 10; fill: rgb(0,0,0); fill-rule: nonzero; opacity: 1;" transform=" matrix(1 0 0 1 0 0) " stroke-linecap="round" />
	<path d="M 17.249 54.339 c -0.27 0 -0.52 -0.11 -0.71 -0.3 c -0.19 -0.181 -0.3 -0.431 -0.3 -0.7 c 0 -0.271 0.11 -0.521 0.3 -0.71 c 0.37 -0.37 1.04 -0.37 1.41 0 c 0.19 0.189 0.3 0.439 0.3 0.71 c 0 0.27 -0.11 0.52 -0.3 0.7 C 17.759 54.229 17.509 54.339 17.249 54.339 z" style="stroke: none; stroke-width: 1; stroke-dasharray: none; stroke-linecap: butt; stroke-linejoin: miter; stroke-miterlimit: 10; fill: rgb(0,0,0); fill-rule: nonzero; opacity: 1;" transform=" matrix(1 0 0 1 0 0) " stroke-linecap="round" />
</g>
</svg>